<?xml version="1.0" standalone="no"?>
<!DOCTYPE svg PUBLIC "-//W3C//DTD SVG 20010904//EN"
 "http://www.w3.org/TR/2001/REC-SVG-20010904/DTD/svg10.dtd">
<svg version="1.0" xmlns="http://www.w3.org/2000/svg"
 width="194.000000pt" height="194.000000pt" viewBox="0 0 194.000000 194.000000"
 preserveAspectRatio="xMidYMid meet">
<metadata>
Created by potrace 1.14, written by Peter Selinger 2001-2017
</metadata>
<g transform="translate(0.000000,194.000000) scale(0.100000,-0.100000)"
fill="#000000" stroke="none">
<path d="M858 1441 c-1 -5 -42 -45 -90 -88 -49 -44 -124 -122 -169 -174 -65
-76 -94 -102 -154 -134 -41 -23 -83 -49 -93 -58 -11 -10 -59 -108 -106 -218
l-87 -200 12 -54 12 -54 140 -56 139 -56 249 58 249 58 0 285 0 286 35 34 c49
47 49 95 0 130 -25 18 -35 33 -35 53 0 15 -18 63 -40 106 -39 78 -55 100 -62
82z"/>
<path d="M1117 1320 c3 -11 21 -33 39 -50 34 -29 34 -29 34 -121 0 -90 -1 -93
-35 -135 l-35 -42 0 -255 0 -255 206 -51 c113 -28 209 -49 213 -46 5 2 53 66
106 141 l98 135 -30 32 c-16 18 -157 175 -312 350 -156 174 -284 317 -286 317
-2 0 -1 -9 2 -20z"/>
</g>
</svg>
